<?xml version="1.0" encoding="UTF-8"?>
<!DOCTYPE svg PUBLIC "-//W3C//DTD SVG 1.1//EN" "http://www.w3.org/Graphics/SVG/1.1/DTD/svg11.dtd">
<!-- Creator: CorelDRAW -->
<svg xmlns="http://www.w3.org/2000/svg" xml:space="preserve" width="2048px" height="2048px" style="shape-rendering:geometricPrecision; text-rendering:geometricPrecision; image-rendering:optimizeQuality; fill-rule:evenodd; clip-rule:evenodd"
viewBox="0 0 2048 2048"
 xmlns:xlink="http://www.w3.org/1999/xlink">
 <defs>
  <style type="text/css">
   <![CDATA[
    .fil3 {fill:none}
    .fil1 {fill:#212121}
    .fil0 {fill:#212121;fill-rule:nonzero}
    .fil2 {fill:#66BB6A;fill-rule:nonzero}
   ]]>
  </style>
 </defs>
 <g id="Layer_x0020_1">
  <metadata id="CorelCorpID_0Corel-Layer"/>
  <g id="_418062176">
   <g>
    <path id="_418062104" class="fil0" d="M1725 820.053c-6.52205,-11.9091 -22.089,-22.239 -41.2146,-30.952 -22.1823,-10.1067 -48.7335,-17.4414 -73.1162,-22.6488l-16.0406 -3.4252 -6.58465 -15.1996c-13.0122,-30.0343 -35.0811,-55.6371 -62.9304,-73.6264 -27.065,-17.4839 -59.6103,-27.6815 -94.643,-27.6815 -3.99449,0 -6.30945,0.0106299 -6.81615,0.0295276 -0.832678,0.0318898 -2.96575,0.184252 -6.46772,0.459449l-0.250394 0 -1.80236 0.131102 -20.5004 -5.75079 -1.42795 -1.00039 -0.0590552 0.0838583c-14.6906,-10.2354 -30.6154,-18.0343 -47.302,-23.2477 -16.6878,-5.21457 -34.35,-7.89449 -52.5189,-7.89449 -10.2154,0 -20.074,0.80315 -29.5134,2.3941 -9.66733,1.62992 -19.076,4.02992 -28.1563,7.18229l0.0271654 0.0767717 -1.66772 0.596457 -21.3756 0 -1.67362 -0.596457 0.0141732 -0.0389764c-9.11103,-3.17126 -18.5587,-5.58426 -28.2673,-7.2189 -9.4441,-1.59095 -19.3087,-2.39528 -29.5264,-2.39528 -16.324,0 -32.1366,2.10354 -47.0174,6.19843 -14.8158,4.07599 -29.2193,10.2567 -42.789,18.4252l-0.0555119 -0.0921261 -1.84961 1.12205 -12.065 7.31575 -13.435 -3.94134 -2.13425 -0.625985 0.00944883 -0.0330709c-6.17245,-1.79291 -12.7512,-3.2752 -19.6866,-4.43386 -6.85394,-1.14567 -13.65,-1.89095 -20.3327,-2.22284l-11.3162 -0.563386 -71.1355 -3.54095 49.8851 -50.7095 7.94174 -8.07284c1.39016,-1.41378 3.01181,-3.09095 4.78819,-4.94882 1.32992,-1.39134 2.92205,-3.0874 4.67835,-4.97953 6.85276,-7.37245 13.226,-14.7272 18.8433,-21.7193 5.31969,-6.62008 10.1102,-13.1457 14.1118,-19.2449l0.124016 0c4.16811,-6.34489 8.36575,-13.5614 10.4244,-20.7496 1.29921,-4.53662 1.61102,-9.1004 -0.106299,-13.1516 -3.02362,-7.14095 -13.441,-13.2047 -26.602,-18.1169 -24.6177,-9.1878 -56.1414,-12.2315 -77.9103,-12.2315 -5.03741,0 -8.65512,0.0496063 -10.8154,0.147638 -3.57992,0.162992 -6.94134,0.394488 -10.0536,0.690945 -12.1158,1.16693 -23.5488,3.42402 -34.2189,6.74174 -10.3748,3.22559 -19.6571,7.31339 -27.7713,12.2327l-2.34567 1.42205 -14.7 8.91261 -15.4252 -7.28741 -2.48268 -1.17284 -0.125197 -0.125197c-15.6827,-7.50945 -32.6729,-13.2402 -50.8347,-17.1591 -18.0047,-3.88465 -37.063,-5.84292 -57.0426,-5.84292 -6.02717,0 -10.898,0.0897638 -14.5736,0.26811 -5.14489,0.249213 -10.0807,0.601182 -14.7709,1.05118 -26.6658,2.56299 -51.4465,7.71024 -74.1768,15.3827 -22.0973,7.45867 -42.2693,17.3847 -60.3544,29.7166l-0.125197 0 -2.02087 1.37244 -12.7819 8.68111 -14.5925 -4.5567 -2.33386 -0.728741 0.0106299 -0.034252c-8.03977,-2.45669 -17.0102,-4.10433 -26.7803,-4.92638 -10.3417,-0.869292 -20.9599,-0.793701 -31.715,0.240945 -23.3126,2.24292 -59.5477,11.2583 -87.6414,26.328 -15.7039,8.42363 -27.7512,17.7484 -29.6268,26.5984l-0.0248032 -0.00472441c-1.00039,4.95 0.804331,10.1492 3.30118,14.6256 3.62244,6.49489 9.2315,12.3449 12.2953,15.5398 4.58386,4.78347 10.1941,10.0287 16.5236,15.4701 6.70867,5.76733 14.0114,11.602 21.5835,17.2276 7.50237,5.57245 21.0992,15.2528 38.002,25.4162 16.6665,10.0205 36.5079,20.5028 56.654,27.8445l0.124016 0 2.24882 0.825591 14.061 5.1626 5.06457 14.2122 0.757087 2.12599 0.0401575 -0.0141732c5.92678,16.5626 12.176,32.6705 18.6992,48.2091 6.76064,16.1032 13.4445,30.8658 19.9996,44.1674 12.0508,24.4677 24.4843,46.239 37.2048,65.1768 12.4134,18.4807 25.161,34.3607 38.1496,47.5075 4.15158,4.20118 8.38347,8.16024 12.6626,11.8465l0.0614174 -0.0720473c4.91693,4.23189 9.19607,7.66182 12.7973,10.2496l0.125197 0 1.98543 1.43976 12.4075 8.99764 0.718111 15.5032 0.10748 2.32205 0.00590552 0c1.16102,23.5725 7.5815,46.3855 18.5032,67.0182 10.9087,20.6067 26.3421,38.9788 45.5422,53.6965l1.82126 1.38898 11.5595 8.81457 0.941339 14.5606 0.140551 2.17559 0.00826772 0c1.70315,24.8929 9.51024,49.076 22.2862,70.6323 12.8894,21.7477 30.6981,40.702 52.2756,54.9296l0.125197 0 2.28307 1.50827 14.3752 9.49607 0 17.1295 0 241.498c0,2.84646 1.16339,5.43544 3.03898,7.31103 1.87677,1.87677 4.46339,3.04016 7.30985,3.04016 2.84292,0 5.43071,-1.16575 7.30867,-3.0437 1.87795,-1.87795 3.04252,-4.46457 3.04252,-7.30749l0 -184.506 0 -65.6162 51.626 40.4906 8.20749 6.43701c8.22166,6.43229 17.0551,12.098 26.4272,16.9571 9.1193,4.72796 18.9106,8.68111 29.302,11.8193l3.60945 1.09252 22.7504 6.88583 0 23.739 0 241.185c0,2.84646 1.16339,5.43426 3.03898,7.30985 1.87677,1.87677 4.46339,3.04016 7.30985,3.04016 2.84646,0 5.43426,-1.16339 7.31103,-3.04016 1.87677,-1.87677 3.04016,-4.46339 3.04016,-7.30985l0.125197 0 0.0011811 -235.095 0.0011811 -27.2386 26.8748 -4.26142 4.29803 -0.681497 0.249213 -0.125197c4.57205,-0.699213 9.22796,-1.61575 13.9264,-2.73662 4.93819,-1.17756 9.50198,-2.45551 13.6559,-3.81969l0.125197 0 2.10118 -0.677953 12.9933 -4.19292 12.0071 6.56812 1.93465 1.05827 0.125197 0c12.698,7.01221 26.3693,12.3933 40.6158,16.0382 14.2063,3.63544 28.9488,5.50394 43.8307,5.50394l0 0.125197c11.8299,0 23.8264,-1.25433 35.654,-3.68977 11.4248,-2.35276 22.852,-5.95867 33.9579,-10.7504l0.125197 0 2.02087 -0.859843 12.6319 -5.3752 12.4925 5.3752 1.99843 0.859843c11.1165,4.79174 22.5496,8.39883 33.9756,10.7528 11.4224,2.35158 23.4059,3.56221 35.6362,3.56221l0 0.125197c2.46614,0 5.56654,-0.100394 9.28465,-0.3 3.11221,-0.166536 6.32835,-0.422835 9.61891,-0.765355l5.59134 -0.579922 35.2512 -3.6567 0 35.4071 0 120.946c0,2.84292 1.16457,5.43071 3.04134,7.30749 1.87795,1.87795 4.46693,3.0437 7.30867,3.0437 2.84528,0 5.43308,-1.16339 7.30985,-3.04016 1.87677,-1.87677 3.04016,-4.46457 3.04016,-7.31103l0.125197 0 0.0011811 -152.197 0 -17.0339 14.126 -9.46654 2.1626 -1.44921 -0.0389764 -0.0578741c3.48898,-2.34921 6.58819,-4.56024 9.24686,-6.60237 3.10748,-2.38465 5.88544,-4.64882 8.29016,-6.76182l0.250394 -0.250394 1.27559 -1.08898 17.8748 -7.50001 1.67244 -0.152362 0.37441 -0.125197c5.38347,-0.433465 10.6925,-1.10433 15.8858,-2.00788 5.14843,-0.895276 10.3453,-2.0504 15.5528,-3.45945l6.42048 -1.73622 40.2508 -10.885 0 41.7603 0 277.498c0,2.84646 1.16339,5.43308 3.04016,7.30985 1.87559,1.87559 4.46339,3.04016 7.30985,3.04016 2.84055,0 5.42835,-1.16575 7.30749,-3.04488 1.87795,-1.87795 3.04252,-4.46339 3.04252,-7.30512l0.125197 0 0.0011811 -328.421 9.00001 -22.2496 1.45158 -1.48583 0.125197 -0.125197c15.1441,-15.45 26.863,-33.1996 34.767,-52.3205 7.84016,-18.9662 11.9504,-39.5055 11.9504,-60.6969 0,-11.5252 -1.19291,-22.7917 -3.55866,-33.7146 -2.4,-11.0787 -5.98111,-21.8917 -10.7221,-32.3516l0 -0.125197 -0.940158 -2.10118 -5.81693 -13.0004 5.81693 -13.0004 0.940158 -2.10118 0 -0.125197c4.74095,-10.4599 8.32323,-21.2729 10.7221,-32.354 2.36575,-10.9252 3.55866,-22.1953 3.55866,-33.7288 0,-16.3323 -2.40355,-32.2465 -7.07953,-47.3233 -4.69961,-15.15 -11.7425,-29.726 -20.9941,-43.3028l-1.17284 -1.71851 -5.12481 -23.5004 0.364961 -2.0504 0.125197 -0.37441c0.068504,-0.362599 0.101575,-0.519685 0.114567,-0.563386l0.10748 -0.666142 8.63386 -53.2701 42.4914 33.1441c15.9295,12.4252 33.2528,25.2803 48.5752,32.9575 9.29764,4.65945 16.578,7.46457 19.0205,6.21851l0.0507874 0.0992127c0.496063,-0.270473 1.12913,-0.864568 1.89095,-1.76929 1.56614,-1.8626 3.15355,-4.58741 4.74213,-8.1567 2.67874,-6.01182 4.00866,-11.4378 3.98622,-16.2331 -0.0177165,-3.87992 -1.06063,-7.72087 -3.1252,-11.4886l0 -0.125197zm-14.7154 -88.9512c30.4736,13.8827 56.5973,32.7425 70.663,58.3548l0.0531496 -0.0295276c7.18111,13.0996 10.8071,27.1335 10.8756,41.9894 0.0661418,13.9476 -3.09921,28.1457 -9.4878,42.4843 -3.92953,8.82638 -8.6941,16.5614 -14.2406,23.1567 -6.3378,7.53071 -13.5874,13.3996 -21.6921,17.5441l0 0.125197c-16.8862,8.61497 -35.1449,8.51812 -53.8111,2.95748 2.48622,13.35 3.75,26.8914 3.75,40.4918 0,15.9095 -1.69606,31.6914 -5.06103,47.2288 -2.5004,11.55 -5.94449,22.9264 -10.3158,34.0807 4.37126,11.1543 7.81418,22.5307 10.3158,34.0784 3.36496,15.5351 5.06103,31.3122 5.06103,47.2146 0,29.2949 -5.83111,58.0453 -16.9512,84.9473 -9.66851,23.3894 -23.3209,45.2162 -40.5933,64.6087l-0.0011811 315.743 0.125197 0c0,20.5122 -8.33741,39.1016 -21.7937,52.5556 -13.4587,13.461 -32.054,21.7961 -52.5579,21.7961 -20.5122,0 -39.1051,-8.33386 -52.5603,-21.7914 -13.4575,-13.4575 -21.7914,-32.0481 -21.7914,-52.5603l0 -238.332 -0.359055 0.0425197c-1.59685,1.30158 -3.17717,2.55236 -4.73741,3.74882l-0.494882 0.379134 -0.0011811 135.678 0.125197 0c0,20.5146 -8.33386,39.104 -21.7914,52.5615 -13.4551,13.4563 -32.0469,21.7914 -52.5603,21.7914 -20.5051,0 -39.0992,-8.33505 -52.5591,-21.7949 -13.4539,-13.4563 -21.7925,-32.0445 -21.7925,-52.5579l0 -87.2162c-14.5169,-0.27874 -29.3398,-1.97717 -44.1319,-5.02323 -12.3638,-2.54646 -24.3803,-5.9752 -35.8536,-10.2437 -11.465,4.26733 -23.4815,7.69489 -35.8465,10.2413 -15.841,3.26221 -32.1248,4.94055 -48.4052,4.94174l0 0.125197c-20.1697,0 -40.2095,-2.54764 -59.5819,-7.50473 -15.6248,-3.99803 -30.8457,-9.59174 -45.378,-16.7091 -1.35354,0.376772 -2.69528,0.735827 -4.02756,1.07953l-0.0011811 208.793 0.125197 0c0,20.5122 -8.33386,39.1028 -21.7914,52.5603 -13.4587,13.4575 -32.0516,21.7914 -52.5615,21.7914 -20.5122,0 -39.1028,-8.33386 -52.5603,-21.7914 -13.4551,-13.4575 -21.7902,-32.0481 -21.7902,-52.5603l0 -218.374c-4.68544,-1.88032 -9.32717,-3.9189 -13.9193,-6.11457l0 126.005c0,20.5134 -8.33859,39.1028 -21.7937,52.5579 -13.4599,13.4599 -32.0528,21.7949 -52.5591,21.7949 -20.5122,0 -39.1028,-8.33386 -52.5603,-21.7914 -13.4551,-13.4575 -21.7902,-32.0469 -21.7902,-52.5615l0 -225.007c-24.5067,-18.5008 -44.8595,-41.413 -60.0567,-67.0548 -15.7347,-26.5488 -26.0599,-56.1331 -29.8831,-86.902 -22.3288,-19.0288 -40.5402,-41.85 -53.9162,-67.1162 -13.2106,-24.9567 -21.6898,-52.3583 -24.7488,-80.8997 -2.53819,-2.00079 -4.92402,-3.96142 -7.15158,-5.87953l0 -0.125197c-5.59843,-4.82126 -11.1059,-9.96733 -16.4752,-15.4004 -15.6685,-15.8575 -30.9213,-34.8296 -45.6496,-56.7579 -14.413,-21.4583 -28.2673,-45.6508 -41.4544,-72.4264 -7.82363,-15.874 -15.0898,-31.8012 -21.75,-47.6658 -5.41063,-12.8894 -10.6713,-26.224 -15.7559,-39.9449 -20.1827,-8.33386 -39.313,-18.6024 -55.6418,-28.4209 -19.3051,-11.6079 -34.7469,-22.5992 -43.2532,-28.917 -9.04253,-6.71812 -17.5252,-13.4823 -25.0819,-19.9772 -7.92402,-6.81142 -15.0591,-13.4953 -21.0236,-19.7197 -5.05867,-5.27481 -14.3162,-14.9303 -22.0465,-28.7918 -8.83938,-15.8469 -14.8748,-35.824 -10.0252,-58.7445l0 -0.125197c6.37914,-30.0957 31.024,-53.0516 61.8756,-69.6001 35.8122,-19.2095 82.0879,-30.7099 111.892,-33.5776 15.1807,-1.46102 29.563,-1.61929 42.9662,-0.491339 9.52087,0.800788 18.8374,2.25355 27.8918,4.35237 20.0256,-12.4169 41.9268,-22.6406 65.5843,-30.626 27.2209,-9.1878 56.7615,-15.339 88.428,-18.3827 6.16063,-0.590552 12.098,-1.02756 17.7709,-1.30158 7.10906,-0.344882 12.978,-0.518504 17.5736,-0.518504 24.339,0 47.9091,2.46142 70.5426,7.34528 17.8925,3.86221 35.2725,9.33662 52.0571,16.4091 9.26812,-4.66536 18.9898,-8.57835 29.1284,-11.7319 14.5394,-4.52126 30.3142,-7.61457 47.2181,-9.24331 4.47992,-0.427559 8.9256,-0.741733 13.3039,-0.941339 5.82402,-0.264567 10.3547,-0.398032 13.565,-0.398032 27.0047,0 66.9839,4.10079 100.16,16.4835 28.2343,10.5378 52.1823,27.3307 63.1028,53.1154 8.30788,19.5862 7.75867,38.2819 2.85591,55.402 -4.13859,14.4473 -11.4697,27.2799 -18.6354,38.1945l0.0862205 0.056693c-2.86181,4.36418 -6.17953,9.05434 -9.87757,13.9807 10.9831,-4.89922 22.4079,-8.97993 34.1693,-12.2162 20.8878,-5.74725 42.339,-8.70001 63.7678,-8.70001 13.2579,0 26.6339,1.13976 40.0264,3.39685 10.1067,1.70197 20.139,4.07835 30.0496,7.11615 9.91418,-3.0378 19.9441,-5.41418 30.0496,-7.11733 13.3878,-2.25591 26.7567,-3.39567 40.0134,-3.39567 24.4288,0 48.4843,3.69922 71.5182,10.8969 20.0788,6.27284 39.2303,15.1689 57.0272,26.5536 4.54489,-0.175984 7.39253,-0.261024 8.59961,-0.261024 47.6351,0 92.054,13.9748 129.143,37.9335 33.6059,21.7087 61.1894,51.7004 79.702,87.0072 23.5984,5.71772 48.4796,13.3961 70.969,23.6433zm-111.69 108.552c-0.0177165,0.124016 -0.0295276,0.194882 0,0.00708662l0 -0.00708662z"/>
    <path id="_418062368" class="fil0" d="M1007.39 620.228l-39.874 43.1327c-5.20748,180.905 -54.8256,276.977 -142.351,300.632 -85.0394,22.9843 -201.581,-29.1591 -344.077,-143.218l39.7512 -49.7504c126.085,100.923 224.032,148.46 287.825,131.218 59.3528,-16.0406 92.6764,-96.319 95.3906,-252.124l8.5004 -21.1252 48.0839 -52.0146 46.7504 43.2496z"/>
   </g>
   <ellipse id="_418061936" class="fil1" cx="612.064" cy="629.129" rx="27.9366" ry="42.8693"/>
   <ellipse id="_418062512" class="fil1" cx="782.95" cy="606.916" rx="27.9366" ry="42.8693"/>
  </g>
  <path class="fil2" d="M1000.22 797.483c-5.52284,16.7067 3.54331,34.728 20.25,40.2508 16.7067,5.52284 34.728,-3.54331 40.2508,-20.25 0.316536,-0.951969 1.1563,-2.37992 2.41536,-4.1504 3.89055,-5.46969 9.84922,-10.6937 16.4362,-14.0421 24.4725,-12.437 24.365,22.9536 74.7875,22.1646 20.4756,-0.320079 38.2394,-7.97245 62.7213,-21.1701 15.5327,-8.35276 21.3532,-27.7181 13.0004,-43.2508 -8.35276,-15.5327 -27.7181,-21.3532 -43.2508,-13.0004 -15.9425,8.59371 -26.3882,13.5591 -33.4701,13.6701 -6.10749,0.0956694 -14.1307,-3.96969 -27.1689,-13.2413 -5.18859,-3.69095 -10.8224,-6.48071 -16.7788,-8.46379 -19.728,-6.56693 -40.4599,-2.92323 -58.591,6.29174 -15.8067,8.03386 -30.1961,20.7 -39.6851,34.0429 -4.72087,6.63898 -8.4756,13.8165 -10.9169,21.1488z"/>
  <path class="fil2" d="M1398.97 849.299c-11.3221,-13.5307 -31.4693,-15.3213 -45,-3.99922 -13.5307,11.3221 -15.3213,31.4693 -3.99922,45l0.88819 1.05827 24.4996 -20.5004 -24.5114 20.5725c0.661418,0.787796 1.35354,1.53425 2.07166,2.24173 6.30591,7.60867 11.191,14.5701 6.23623,21.228 -15.1453,20.3551 -9.62009,36.1465 8.89489,49.9276 5.52166,4.10906 12.2114,7.23308 19.7421,10.7469 5.98229,2.79213 15.502,-12.4028 14.5795,-3.01299 -1.72559,17.5347 11.0906,33.15 28.6252,34.8756 17.5347,1.72559 33.15,-11.0906 34.8756,-28.6252 2.94685,-29.9551 -18.404,-44.8241 -39.5044,-55.4422 9.04016,-29.0575 -6.70867,-49.2473 -24.6177,-70.6111 -0.581103,-0.844489 -1.20709,-1.67126 -1.88032,-2.47323l-0.0425197 0.0354331 -0.857481 -1.02165z"/>
  <path class="fil2" d="M1177.84 937.098c-17.465,-2.34685 -33.528,9.91064 -35.8748,27.3756 -2.34685,17.465 9.91064,33.528 27.3756,35.8748 7.86969,1.05591 22.115,4.24961 33.5646,8.96812 -8.713,25.7622 3.01063,39.5634 21.802,50.2843 4.45276,2.54055 8.20158,4.02048 12.0496,5.53583 2.22284,0.875198 -4.72205,-1.86142 -4.9441,-1.38662 -7.45512,15.9473 -0.571654,34.9205 15.3756,42.3756 15.9473,7.45512 34.9205,0.571654 42.3756,-15.3756 25.0524,-53.4461 5.45906,-69.9095 -18.1028,-80.4036 0.207874,-1.00276 0.380315,-2.00788 0.516142,-3.02008 1.54606,-11.5228 -1.40669,-21.6933 -7.72678,-30.6366 -0.775985,-1.24725 -1.64646,-2.45669 -2.61496,-3.61654l-24.5693 20.5028 24.4996 -20.5004c-5.00788,-6.00119 -11.7059,-11.1449 -19.3524,-15.5091 -19.5791,-11.1709 -49.7292,-18.5032 -64.3737,-20.4685z"/>
  <path class="fil2" d="M984.982 1044.33c-16.7067,5.52284 -25.7729,23.5441 -20.25,40.2508 2.46614,7.46103 24.8776,49.2544 59.5619,53.3493 -1.40906,14.478 5.40709,24.8551 23.6221,30.4866 55.7469,17.1378 30.7772,-91.8178 -4.72559,-93.1548 -0.173622,-3.09685 -0.747638,-6.43111 -2.04921,-10.3311 -7.34292,-22.0146 -21.6236,-32.1166 -56.1591,-20.6008z"/>
  <path class="fil2" d="M1386.54 1090.11c-16.7752,-5.31496 -34.6855,3.97559 -40.0004,20.7508 -5.31496,16.7752 3.97559,34.6855 20.7508,40.0004 0.915355,0.290551 2.70355,-3.11221 4.48701,-7.17166 -5.48977,20.0268 -2.22402,37.4729 32.6882,49.4493 0.843308,3.9437 2.40236,8.30788 4.85552,13.1811 7.9382,15.7394 27.1358,22.063 42.8752,14.1248 40.4103,-20.3799 35.524,-65.7863 -12.4299,-82.9796 0.448819,-17.0835 -10.585,-33.7914 -53.2264,-47.3552z"/>
  <path class="fil2" d="M839.764 1011.13c-16.5685,-6.07441 -34.9252,2.43189 -40.9996,19.0004 -14.2571,2.24882 26.2831,114.489 75.0627,113.806 17.6043,1.10433 32.7709,-12.2717 33.8752,-29.876 0.0708662,-1.11732 0.0779528,-0.801969 0.217323,-2.61142 1.25787,-16.3299 1.88386,-24.4583 -11.5559,-38.8973 11.3894,-20.9114 9.82324,-37.0051 -56.5996,-61.4221z"/>
 </g>
 <rect class="fil3" width="2048" height="2048"/>
</svg>
